<?xml version="1.0" encoding="utf-8"?>
<!-- Generator: Adobe Illustrator 26.0.1, SVG Export Plug-In . SVG Version: 6.00 Build 0)  -->
<svg version="1.1" id="Layer_1" xmlns="http://www.w3.org/2000/svg" xmlns:xlink="http://www.w3.org/1999/xlink" x="0px" y="0px"
	 viewBox="0 0 612 792" style="enable-background:new 0 0 612 792;" xml:space="preserve">
<style type="text/css">
	.st0{fill:url(#SVGID_1_);}
	.st1{fill:url(#SVGID_00000158731685127713619090000011221516046368068798_);}
	.st2{fill:url(#SVGID_00000133492815162320225460000007668814797790582933_);}
	.st3{fill:url(#SVGID_00000026162374005938430530000002875597250919728818_);}
	.st4{fill:url(#SVGID_00000170982234298339387390000017327282107718056890_);}
	.st5{fill:url(#SVGID_00000160913285604478355810000017553449891649646765_);}
	.st6{fill:url(#SVGID_00000049938538477482628580000014157013413097116288_);}
</style>
<g>
	<linearGradient id="SVGID_1_" gradientUnits="userSpaceOnUse" x1="87.9961" y1="269.5762" x2="87.9961" y2="244.9844">
		<stop  offset="0" style="stop-color:#ED2024"/>
		<stop  offset="0.1529" style="stop-color:#ED2724"/>
		<stop  offset="0.3095" style="stop-color:#EC3924"/>
		<stop  offset="0.468" style="stop-color:#EB4E24"/>
		<stop  offset="0.6278" style="stop-color:#EA6724"/>
		<stop  offset="0.7885" style="stop-color:#E98224"/>
		<stop  offset="0.948" style="stop-color:#E89F23"/>
		<stop  offset="1" style="stop-color:#E8AA22"/>
	</linearGradient>
	<path class="st0" d="M88.45,257.54v6.33H86.4v5.71h-7.14v-15.26c0-2.95,0.81-5.25,2.42-6.88s3.88-2.45,6.79-2.45
		c2.81,0,4.89,0.74,6.24,2.22s2.02,3.77,2.02,6.86v15.5H89.6v-15.03c0-0.94-0.11-1.59-0.33-1.95s-0.62-0.54-1.2-0.54
		c-1.11,0-1.67,0.83-1.67,2.5v2.99H88.45z"/>
	
		<linearGradient id="SVGID_00000103959782732352630230000008369962970389366710_" gradientUnits="userSpaceOnUse" x1="108.7646" y1="269.9277" x2="108.7646" y2="245.582">
		<stop  offset="0" style="stop-color:#ED2024"/>
		<stop  offset="0.1529" style="stop-color:#ED2724"/>
		<stop  offset="0.3095" style="stop-color:#EC3924"/>
		<stop  offset="0.468" style="stop-color:#EB4E24"/>
		<stop  offset="0.6278" style="stop-color:#EA6724"/>
		<stop  offset="0.7885" style="stop-color:#E98224"/>
		<stop  offset="0.948" style="stop-color:#E89F23"/>
		<stop  offset="1" style="stop-color:#E8AA22"/>
	</linearGradient>
	<path style="fill:url(#SVGID_00000103959782732352630230000008369962970389366710_);" d="M111.36,245.58h6.57v14.61
		c0,2.68-0.7,4.87-2.11,6.56c-0.81,0.97-1.84,1.75-3.08,2.32s-2.53,0.86-3.84,0.86c-2.61,0-4.82-0.88-6.61-2.64
		s-2.69-3.91-2.69-6.47c0-2.47,0.89-4.61,2.67-6.42s3.89-2.71,6.33-2.71c0.39,0,0.97,0.04,1.76,0.11v7.24
		c-0.54-0.42-1.08-0.63-1.62-0.63c-0.68,0-1.26,0.25-1.75,0.75s-0.73,1.1-0.73,1.8c0,0.68,0.25,1.26,0.76,1.75s1.11,0.73,1.81,0.73
		c1.69,0,2.53-1.17,2.53-3.5V245.58z"/>
	
		<linearGradient id="SVGID_00000021088970887868679070000011596996981676375982_" gradientUnits="userSpaceOnUse" x1="143.0947" y1="270.1738" x2="143.0947" y2="245.582">
		<stop  offset="0" style="stop-color:#ED2024"/>
		<stop  offset="0.1529" style="stop-color:#ED2724"/>
		<stop  offset="0.3095" style="stop-color:#EC3924"/>
		<stop  offset="0.468" style="stop-color:#EB4E24"/>
		<stop  offset="0.6278" style="stop-color:#EA6724"/>
		<stop  offset="0.7885" style="stop-color:#E98224"/>
		<stop  offset="0.948" style="stop-color:#E89F23"/>
		<stop  offset="1" style="stop-color:#E8AA22"/>
	</linearGradient>
	<path style="fill:url(#SVGID_00000021088970887868679070000011596996981676375982_);" d="M155.79,245.58v17.28
		c0,2.16-0.65,3.91-1.95,5.27s-2.98,2.04-5.04,2.04c-2.48,0-4.38-1.13-5.7-3.39c-0.81,1.22-1.68,2.09-2.6,2.61s-2.07,0.78-3.43,0.78
		c-2.16,0-3.81-0.68-4.96-2.04s-1.72-3.32-1.72-5.87v-16.68h7.14v15.61c0,0.77,0.06,1.28,0.18,1.53s0.37,0.37,0.75,0.37
		c0.7,0,1.05-0.59,1.05-1.78v-15.73h7.14v15.61c0,0.75,0.06,1.25,0.19,1.51s0.38,0.39,0.76,0.39c0.7,0,1.05-0.63,1.05-1.9v-15.61
		H155.79z"/>
	
		<linearGradient id="SVGID_00000163066180607029350430000000391416631655440557_" gradientUnits="userSpaceOnUse" x1="167.8096" y1="269.9453" x2="167.8096" y2="251.6992">
		<stop  offset="0" style="stop-color:#ED2024"/>
		<stop  offset="0.1529" style="stop-color:#ED2724"/>
		<stop  offset="0.3095" style="stop-color:#EC3924"/>
		<stop  offset="0.468" style="stop-color:#EB4E24"/>
		<stop  offset="0.6278" style="stop-color:#EA6724"/>
		<stop  offset="0.7885" style="stop-color:#E98224"/>
		<stop  offset="0.948" style="stop-color:#E89F23"/>
		<stop  offset="1" style="stop-color:#E8AA22"/>
	</linearGradient>
	<path style="fill:url(#SVGID_00000163066180607029350430000000391416631655440557_);" d="M169.37,263v6.8
		c-0.54,0.09-1.03,0.14-1.48,0.14c-2.64,0-4.83-0.87-6.59-2.6s-2.64-3.91-2.64-6.52c0-2.54,0.89-4.7,2.66-6.47s3.93-2.65,6.48-2.65
		c2.84,0,5.07,0.83,6.71,2.49s2.45,3.92,2.45,6.79v8.6h-6.57v-8.12c0-0.93-0.23-1.66-0.68-2.21s-1.06-0.83-1.82-0.83
		c-0.69,0-1.29,0.25-1.79,0.76s-0.76,1.1-0.76,1.79c0,0.73,0.23,1.32,0.69,1.79s1.04,0.7,1.74,0.7
		C168.34,263.46,168.87,263.31,169.37,263z"/>
	
		<linearGradient id="SVGID_00000019677033523346003730000003390905802381816767_" gradientUnits="userSpaceOnUse" x1="184.8955" y1="269.8398" x2="184.8955" y2="245.582">
		<stop  offset="0" style="stop-color:#ED2024"/>
		<stop  offset="0.1529" style="stop-color:#ED2724"/>
		<stop  offset="0.3095" style="stop-color:#EC3924"/>
		<stop  offset="0.468" style="stop-color:#EB4E24"/>
		<stop  offset="0.6278" style="stop-color:#EA6724"/>
		<stop  offset="0.7885" style="stop-color:#E98224"/>
		<stop  offset="0.948" style="stop-color:#E89F23"/>
		<stop  offset="1" style="stop-color:#E8AA22"/>
	</linearGradient>
	<path style="fill:url(#SVGID_00000019677033523346003730000003390905802381816767_);" d="M186.64,245.58v6.71h2.95v6.94h-2.95
		c0,1.39,0.22,2.36,0.66,2.88s1.25,0.79,2.42,0.79v6.91c-0.34,0.01-0.59,0.02-0.76,0.02c-1.49,0-2.89-0.35-4.21-1.04
		s-2.38-1.63-3.17-2.81c-1.01-1.51-1.51-3.52-1.51-6.01v-14.4H186.64z"/>
	
		<linearGradient id="SVGID_00000147901153757478876390000004898463757185449895_" gradientUnits="userSpaceOnUse" x1="200.9971" y1="269.9453" x2="200.9971" y2="251.6816">
		<stop  offset="0" style="stop-color:#ED2024"/>
		<stop  offset="0.1529" style="stop-color:#ED2724"/>
		<stop  offset="0.3095" style="stop-color:#EC3924"/>
		<stop  offset="0.468" style="stop-color:#EB4E24"/>
		<stop  offset="0.6278" style="stop-color:#EA6724"/>
		<stop  offset="0.7885" style="stop-color:#E98224"/>
		<stop  offset="0.948" style="stop-color:#E89F23"/>
		<stop  offset="1" style="stop-color:#E8AA22"/>
	</linearGradient>
	<path style="fill:url(#SVGID_00000147901153757478876390000004898463757185449895_);" d="M203.59,261.51l6.52-0.25
		c-0.19,2.53-1.13,4.61-2.83,6.24s-3.77,2.44-6.21,2.44c-2.58,0-4.75-0.9-6.53-2.69s-2.66-3.99-2.66-6.59c0-2.47,0.9-4.59,2.69-6.35
		s3.94-2.64,6.45-2.64c2.19,0,4.12,0.69,5.8,2.07s2.72,3.15,3.13,5.29l-6.66,0.25c-0.57-0.75-1.3-1.12-2.18-1.12
		c-0.75,0-1.37,0.25-1.85,0.74s-0.72,1.11-0.72,1.86c0,0.76,0.25,1.4,0.76,1.92s1.15,0.77,1.91,0.77
		C202.33,263.46,203.12,262.81,203.59,261.51z"/>
	
		<linearGradient id="SVGID_00000061456655900310998020000009878705036389069477_" gradientUnits="userSpaceOnUse" x1="220.6846" y1="269.5762" x2="220.6846" y2="245.582">
		<stop  offset="0" style="stop-color:#ED2024"/>
		<stop  offset="0.1529" style="stop-color:#ED2724"/>
		<stop  offset="0.3095" style="stop-color:#EC3924"/>
		<stop  offset="0.468" style="stop-color:#EB4E24"/>
		<stop  offset="0.6278" style="stop-color:#EA6724"/>
		<stop  offset="0.7885" style="stop-color:#E98224"/>
		<stop  offset="0.948" style="stop-color:#E89F23"/>
		<stop  offset="1" style="stop-color:#E8AA22"/>
	</linearGradient>
	<path style="fill:url(#SVGID_00000061456655900310998020000009878705036389069477_);" d="M219.55,245.58v7.33
		c1.11-0.81,2.23-1.21,3.34-1.21c1.69,0,3.03,0.61,4.02,1.83s1.49,2.87,1.49,4.94v11.11h-6.57v-9.26c0-0.75-0.08-1.25-0.24-1.51
		s-0.47-0.39-0.92-0.39c-0.74,0-1.11,0.54-1.11,1.63v9.53h-6.57v-23.99H219.55z"/>
</g>
</svg>
