<svg xmlns="http://www.w3.org/2000/svg" viewBox="0 0 106 106"><defs><style>.cls-1{fill:#fff;}.cls-2{fill:#ffc868;}.cls-3{fill:#70cbf6;}.cls-4{fill:#ff7575;}.cls-5{fill:#171c1f;}.cls-6{opacity:0.25;}.cls-7{opacity:0.1;}</style></defs><title>tv</title><g id="TV"><g id="Fill"><rect class="cls-1" x="4" y="36" width="98" height="66" rx="8" ry="8"/></g><g id="Yellow"><path class="cls-2" d="M94,36H78v66H94a8,8,0,0,0,8-8V44A8,8,0,0,0,94,36Z"/></g><g id="Blue"><rect class="cls-3" x="9" y="41" width="62" height="56" rx="3" ry="3"/></g><g id="Red"><circle class="cls-4" cx="90" cy="57" r="7"/></g><g id="White"><path class="cls-1" d="M90,76a3,3,0,1,0-3-3A3,3,0,0,0,90,76Zm0,6a3,3,0,1,0,3,3A3,3,0,0,0,90,82Z"/></g><g id="Inner_Lines_1" data-name="Inner Lines 1"><path class="cls-5" d="M90,69a4,4,0,1,0,4,4A4,4,0,0,0,90,69Zm0,6a2,2,0,1,1,2-2A2,2,0,0,1,90,75ZM76,102h2V36H76ZM68,40H12a4,4,0,0,0-4,4V94a4,4,0,0,0,4,4H68a4,4,0,0,0,4-4V44A4,4,0,0,0,68,40Zm2,54a2,2,0,0,1-2,2H12a2,2,0,0,1-2-2V44a2,2,0,0,1,2-2H68a2,2,0,0,1,2,2ZM90,49a8,8,0,1,0,8,8A8,8,0,0,0,90,49Zm0,14a6,6,0,1,1,6-6A6,6,0,0,1,90,63Zm0,18a4,4,0,1,0,4,4A4,4,0,0,0,90,81Zm0,6a2,2,0,1,1,2-2A2,2,0,0,1,90,87Z"/></g><g id="Inner_Lines_2" data-name="Inner Lines 2" class="cls-6"><path d="M90,49a1,1,0,0,0-1,1v4a1,1,0,0,0,2,0V50A1,1,0,0,0,90,49Z"/></g><g id="Shadows" class="cls-7"><path d="M93.86,74a4,4,0,0,1-7.72,0,4,4,0,1,0,7.72,0ZM90,67a8,8,0,0,0,7.93-9,8,8,0,0,1-15.86,0A8,8,0,0,0,90,67Zm0,22a4,4,0,0,1-3.86-3,4,4,0,1,0,7.72,0A4,4,0,0,1,90,89ZM12,46H68a2,2,0,0,1,2,2V44a2,2,0,0,0-2-2H12a2,2,0,0,0-2,2v4A2,2,0,0,1,12,46Zm82,54H12a8,8,0,0,1-8-8v2a8,8,0,0,0,8,8H94a8,8,0,0,0,8-8V92A8,8,0,0,1,94,100Z"/></g><g id="White-2" data-name="White" class="cls-6"><path class="cls-1" d="M19.71,55.71l4-4a1,1,0,1,0-1.41-1.41l-4,4a1,1,0,1,0,1.41,1.41ZM30,51a1,1,0,0,0-.71.29h0l-10,10a1,1,0,0,0,1.41,1.41h0l10-10A1,1,0,0,0,30,51Z"/></g><g id="Outline"><path class="cls-5" d="M94,32H57.83L74.41,15.41a2,2,0,1,0-2.83-2.83L53,31.17,22.41.59h0a2,2,0,0,0-2.83,2.83h0L48.17,32H12A12,12,0,0,0,0,44V94a12,12,0,0,0,12,12H94a12,12,0,0,0,12-12V44A12,12,0,0,0,94,32Zm8,62a8,8,0,0,1-8,8H12a8,8,0,0,1-8-8V44a8,8,0,0,1,8-8H94a8,8,0,0,1,8,8Z"/></g></g></svg>